<?xml version="1.0" encoding="UTF-8" standalone="no"?>
<svg
   xmlns:dc="http://purl.org/dc/elements/1.1/"
   xmlns:cc="http://creativecommons.org/ns#"
   xmlns:rdf="http://www.w3.org/1999/02/22-rdf-syntax-ns#"
   xmlns:svg="http://www.w3.org/2000/svg"
   xmlns="http://www.w3.org/2000/svg"
   xmlns:sodipodi="http://sodipodi.sourceforge.net/DTD/sodipodi-0.dtd"
   xmlns:inkscape="http://www.inkscape.org/namespaces/inkscape"
   viewBox="0 0 384 512"
   version="1.1"
   id="svg4"
   sodipodi:docname="logo.svg"
   inkscape:export-filename="C:\Users\pengj\Downloads\staff-snake-solid.png"
   inkscape:export-xdpi="96"
   inkscape:export-ydpi="96"
   inkscape:version="1.0.2-2 (e86c870879, 2021-01-15)">
  <metadata
     id="metadata10">
    <rdf:RDF>
      <cc:Work
         rdf:about="">
        <dc:format>image/svg+xml</dc:format>
        <dc:type
           rdf:resource="http://purl.org/dc/dcmitype/StillImage" />
        <dc:title></dc:title>
      </cc:Work>
    </rdf:RDF>
  </metadata>
  <defs
     id="defs8" />
  <sodipodi:namedview
     pagecolor="#ffffff"
     bordercolor="#666666"
     borderopacity="1"
     objecttolerance="10"
     gridtolerance="10"
     guidetolerance="10"
     inkscape:pageopacity="0"
     inkscape:pageshadow="2"
     inkscape:window-width="1920"
     inkscape:window-height="1051"
     id="namedview6"
     showgrid="false"
     inkscape:zoom="1.71875"
     inkscape:cx="73.018182"
     inkscape:cy="256"
     inkscape:window-x="-9"
     inkscape:window-y="-9"
     inkscape:window-maximized="1"
     inkscape:current-layer="svg4" />
  <!--! Font Awesome Pro 6.3.0 by @fontawesome - https://fontawesome.com License - https://fontawesome.com/license (Commercial License) Copyright 2023 Fonticons, Inc. -->
  <path
     d="M222.6 43.2l-.2 4.8H288c53 0 96 43 96 96s-43 96-96 96H248V160h40c8.8 0 16-7.2 16-16s-7.2-16-16-16H248 220l-4.5 144H256c53 0 96 43 96 96s-43 96-96 96H240V384h16c8.8 0 16-7.2 16-16s-7.2-16-16-16H213l-3.1 99.5L208.5 495l0 1c-.3 8.9-7.6 16-16.5 16s-16.2-7.1-16.5-16l0-1-1-31H136c-22.1 0-40-17.9-40-40s17.9-40 40-40h36l-1-32H152c-53 0-96-43-96-96c0-47.6 34.6-87.1 80-94.7V256c0 8.8 7.2 16 16 16h16.5L164 128H136 122.6c-9 18.9-28.3 32-50.6 32H56c-30.9 0-56-25.1-56-56S25.1 48 56 48h8 8 89.5l-.1-4.8L161 32c0-.7 0-1.3 0-1.9c.5-16.6 14.1-30 31-30s30.5 13.4 31 30c0 .6 0 1.3 0 1.9l-.4 11.2zM64 112a16 16 0 1 0 0-32 16 16 0 1 0 0 32z"
     id="path2"
     style="fill:#f9f9f9" />
</svg>
